# xmcd
#
# Track frame offsets:
#	151
#	26023
#	43995
#	58917
#	70761
#	82428
#	92068
#	108771
#	124167
#	135160
#	150464
#	162874
#	181236
#	195771
#	208884
#
# Disc length: 2904 seconds
#
# Revision: 2
# Processed by: cddbd v1.4PL0 Copyright (c) Steve Scherf et al.
# Submitted via: audiograbber 1.82.02
#
DISCID=ca0b560f
DTITLE=Railway Pie (Whangarei) - Railway Pie
DYEAR=1900
DGENRE=Blues
TTITLE0=Walk Right In
TTITLE1=I'm Through With You
TTITLE2=Big Road Blues
TTITLE3=Somebody's Been Using That Thing
TTITLE4=Lonesome Train
TTITLE5=Bye Bye Baby Blues
TTITLE6=Dallas Rag
TTITLE7=Poor Boy
TTITLE8=Big Railroad Blues
TTITLE9=Got A Letter From My Darling
TTITLE10=Seminole Blues
TTITLE11=Save Me Some
TTITLE12=Aunt Caroline Dyer
TTITLE13=Sophisticated Mama
TTITLE14=You May Leave and 8th Of January
EXTD=
EXTT0=
EXTT1=
EXTT2=
EXTT3=
EXTT4=
EXTT5=
EXTT6=
EXTT7=
EXTT8=
EXTT9=
EXTT10=
EXTT11=
EXTT12=
EXTT13=
EXTT14=
PLAYORDER=
